<svg xmlns="http://www.w3.org/2000/svg" viewBox="0 0 900 168"  stroke="#00000000"><path d="M147 14.5c-.1.3-.1 5.1-.1 10.7l-.1 10.3 25.2.6V14h-12.5c-6.9 0-12.5.2-12.5.5z" fill="#6f6e6c"/><path d="M719.7 14.7c-.2.5-.4 5.3-.3 10.8l.1 10 24.5.6V14h-11.9c-6.6 0-12.2.3-12.4.7z" fill="#8cb712"/><path d="M39 84v69h28l.2-29.3.3-29.2 60-1 .3-10.4c.2-6.6-.1-10.7-.8-11.1-.6-.4-13.9-.6-29.6-.5-15.7 0-29-.3-29.7-.7-1.3-.8-1.1-31.7.2-33 .4-.4 16-.9 34.6-1l34-.3v-21l-48.7-.3L39 15v69zm147-11.5c0 45.5.2 50.1 1.9 56.4 1 3.7 2.5 7.9 3.2 9.2 1.9 3.2 10.1 11.8 11.5 11.9.5 0 1.5.5 2.2 1.2 4.6 4.6 28 6.5 37.9 3 11.6-4.1 19-11.2 23.2-22.1 1.8-4.7 2-7.8 2.1-23.5V88.7c0-1.5-1.2-1.7-10.9-1.7h-10.9l-.4 16.7c-.5 18.5-1.3 21.6-6.8 27-3.5 3.4-9.2 4.7-15.2 3.4-5.2-1.2-8.4-4-10.8-9.3-1.9-4.5-2-6.4-1.8-30l.3-25.3 28.3-.3L268 69V51l-28.2-.2-28.3-.3-.6-27.5H186v49.5zm143.5-22.9c-5.9.9-11.1 3.8-17.1 9.6-5.3 5.2-6.2 5.7-7.4 4.4-.8-1-1-2.8-.6-4.7.3-1.7.3-4.2 0-5.5-.6-2.3-.8-2.4-11.4-2.4-8.9 0-10.9.3-11.4 1.6-1.1 2.7-.7 100.2.4 100.6.5.1 6.4.2 13 0l12-.3v-34.4c0-33.8 0-34.4 2.2-38.2 2.7-4.5 6.7-8.2 8.9-8.3.8 0 2-.5 2.7-1.2.6-.6 4-1.2 7.4-1.2 6.6-.1 12.1 1.8 15 5.1 4.2 4.8 4.3 5.6 4.8 42.6l.5 35.8h24l.3-39.3c.2-38 .2-39.5-1.9-45-2.7-7.3-8.7-14.2-14.7-16.9-4.7-2.1-19.5-3.4-26.7-2.3zm91.5.3c-23.1 4.1-36.9 23.3-37 51.5 0 29.1 10.8 46.1 33.7 53 7.5 2.3 26.1 2.1 33.1-.3 7.9-2.7 19.4-10.8 21.5-15.1 1.3-2.6 3.2-5.7 4.4-7.1.6-.8 1.3-2.5 1.5-3.9l.3-2.5-12.7-.3c-7.7-.1-12.8.1-12.8.7 0 2.1-5.4 7.2-9.7 9.1-10.3 4.5-22.6.9-28.8-8.5-2-3.1-5.5-12-5.5-14.1 0-.7.7-2 1.6-2.9 1.4-1.4 5.7-1.5 35.7-1.5l34.2.1.3-6.1c.2-3.3-.4-8.8-1.3-12.1-.8-3.3-1.5-7.1-1.5-8.4s-.4-2.6-.9-2.9-1.2-1.8-1.5-3.2c-.9-3.6-6.6-12.2-10.5-16-1.8-1.7-6.1-4.6-9.7-6.3-6-2.9-7.6-3.2-18.2-3.6-6.5-.2-13.7 0-16.2.4zm22.8 21.3c7.6 4.6 13.8 17.8 10 21.6-.9.9-6.9 1.2-20.9 1.2-17 0-20-.2-21.4-1.6-1.1-1.1-1.4-2.5-1-3.8.4-1.2.9-3.2 1.2-4.6.6-2.3 3.4-7 5.8-9.5 6-6.2 18.8-7.8 26.3-3.3z" fill="#6f6e6c"/><path d="M796 49.9c-3 .3-6.4 1.2-7.5 1.8-1.1.7-4.2 2.2-6.8 3.3-7.2 3.1-17 13.3-20.5 21.2-3.8 8.5-4.7 14-4.7 27.3.1 18.4 3.5 27.7 13.9 38.1 9.8 9.7 21.9 14.4 37.6 14.4 8.4 0 21.1-2.7 23.4-5 .5-.5 1.6-1 2.4-1 2 0 9.6-6.1 13.7-10.9 4.2-5.1 8.5-13.4 8.5-16.6 0-1.2.7-3.9 1.5-5.8 2-4.9 2-25.1 0-28.7-.8-1.4-1.4-4.1-1.5-6 0-4.9-8.7-18-14.8-22.5-5-3.7-6.2-4.3-13.3-7.4-5.2-2.3-22.2-3.5-31.9-2.2zm19.4 20c.3.4 1.8 1.1 3.4 1.4 3.9.8 10.6 7.6 13.2 13.4 1.8 4.1 2.2 6.8 2.3 17.8 0 12.4-.1 13.4-2.8 18.8-5.6 11.5-16.1 16.4-29.6 13.9-9.9-1.8-15.6-7.5-19.2-19.3-3.3-10.7-1.5-27.5 3.8-35.8 4.2-6.7 12.7-11 22.2-11 3.4-.1 6.4.3 6.7.8z" fill="#8cb712"/><path d="M146.8 101.6c-.2 27.8 0 50.8.5 51.1.4.2 6 .4 12.5.4h11.7V51.5l-24.5-.6-.2 50.7zm345.8-49c-.3.9-.6 4.6-.6 8.4 0 10.9-2.1 10 24.6 10H540v2.3c0 1.2-.8 3-1.7 3.8-1.8 1.6-2.4 2.3-12.2 13.9-3 3.6-5.7 6.7-6.1 7-.3.3-4.8 5.4-10 11.5l-17.4 20.2-3.7 4.1.6 19.2h87l.6-19h-25.5c-14 0-26.1-.3-27-.6-2.2-.8-2-2.5.7-5.4 1.3-1.4 5.6-6.3 9.7-11s8.6-9.7 10-11.1c1.4-1.5 3.4-3.7 4.5-5 4.2-4.9 19.8-22.4 20.4-22.9.4-.3 1.7-1.8 2.9-3.4 1.9-2.5 2.2-4.1 2.2-11.7 0-4.8-.3-9.4-.6-10.3-.5-1.4-5.1-1.6-40.9-1.6s-40.4.2-40.9 1.6zm94.6-.8c-.9.6-1.2 3.3-1 9.8l.3 8.9 23.8.3c25.8.3 25.8.2 21.5 5.8-2 2.6-14.5 17.1-15.8 18.4-.3.3-4.8 5.4-10 11.5l-10.9 12.6c-2.3 2.3-6.1 6.7-9.8 11.4-3.2 3.9-3.3 4.3-3.3 13.2v9.3h86.8c.4 0 .7-4.3.7-9.6v-9.5l-25.6.1c-21 0-25.8-.2-26.8-1.4-.9-1.1-.9-1.7.1-2.8.7-.7 4.5-4.9 8.3-9.3L641 103l8.5-9.5 16.3-18.3c1.2-1.4 2.2-3 2.2-3.6.3-6.8 0-18.8-.5-19.6-.8-1.2-78.3-1.4-80.3-.2z" fill="#6f6e6c"/><path d="M720.4 52.2c-.4.7-.8 23.5-.8 50.7l-.1 49.6 24.5.6v-50c0-46.6-.1-50.1-1.8-51-2.6-1.4-21-1.3-21.8.1z" fill="#8cb712"/><path d="M691.6 128l-12.8.5v24l27.2.6v-12.5c0-6.9-.3-12.6-.7-12.8-.5-.2-6.6-.1-13.7.2z" fill="#6f6e6c"/></svg>
